# xmcd
#
# Track frame offsets: 
#        150
#        13559
#        23220
#        35347
#        72643
#        91990
#        114111
#        132835
#        150839
#        169833
#        189795
#        200991
#        227278
#        244112
#        252356
#        267897
#        285586
#        300545
#
# Disc length: 4245 seconds
#
# Revision: 6
# Processed by: cddbd v1.5.2PL0 Copyright (c) Steve Scherf et al.
# Submitted via: ExactAudioCopy v1.0b1
#
DISCID=e3109312
DTITLE=Janis Joplin - 18 Essential Songs
DYEAR=1995
DGENRE=Blues
TTITLE0=Trouble In Mind
TTITLE1=Down On Me
TTITLE2=Bye Bye Baby
TTITLE3=Ball And Chain
TTITLE4=Piece Of My Heart
TTITLE5=I Need A Man To Love
TTITLE6=Summertime
TTITLE7=Try (Just A Little Bit Harder)
TTITLE8=One Good Man
TTITLE9=Kozmic Blues
TTITLE10=Raise Your Hand
TTITLE11=Tell Mama
TTITLE12=Move Over
TTITLE13=Mercedes Benz
TTITLE14=Get It While You Can
TTITLE15=Half Moon
TTITLE16=Trust Me
TTITLE17=Me And Bobby McGee
EXTD=
EXTT0=
EXTT1=
EXTT2=
EXTT3=
EXTT4=
EXTT5=
EXTT6=
EXTT7=
EXTT8=
EXTT9=
EXTT10=
EXTT11=
EXTT12=
EXTT13=
EXTT14=
EXTT15=
EXTT16=
EXTT17=
PLAYORDER=
